<svg width="23" height="23" viewBox="0 0 23 23" fill="none" xmlns="http://www.w3.org/2000/svg">
<path d="M22.7967 4.56958L15.8213 11.5001L22.7967 18.4306C22.9228 18.167 22.9993 17.8757 22.9993 17.5645V5.43563C22.9993 5.12446 22.9228 4.83314 22.7967 4.56958Z" fill="#2F9AAA"/>
<path d="M20.9793 3.41406H2.0223C1.71112 3.41406 1.41981 3.49056 1.15625 3.61666L10.0716 12.4871C10.8599 13.2754 12.1418 13.2754 12.93 12.4871L21.8454 3.61666C21.5818 3.49056 21.2905 3.41406 20.9793 3.41406Z" fill="#2F9AAA"/>
<path d="M0.202598 4.56958C0.076502 4.83314 0 5.12446 0 5.43563V17.5645C0 17.8757 0.076502 18.1671 0.202598 18.4306L7.17802 11.5001L0.202598 4.56958Z" fill="#2F9AAA"/>
<path d="M14.87 12.4529L13.8829 13.4399C12.5694 14.7534 10.4322 14.7534 9.1187 13.4399L8.13167 12.4529L1.15625 19.3834C1.41981 19.5095 1.71112 19.586 2.0223 19.586H20.9793C21.2905 19.586 21.5818 19.5095 21.8454 19.3834L14.87 12.4529Z" fill="#2F9AAA"/>
</svg>
